<?xml version="1.0" encoding="UTF-8"?>
<svg id="Layer_1" data-name="Layer 1" xmlns="http://www.w3.org/2000/svg" viewBox="0 0 240.45 78.89">
  <defs>
    <style>
      .cls-1 {
        stroke-width: 4.59px;
      }

      .cls-1, .cls-2 {
        fill: none;
        stroke: #7a4d86;
        stroke-linecap: round;
        stroke-linejoin: round;
      }

      .cls-2 {
        stroke-width: 4.99px;
      }

      .cls-3 {
        fill: #7a4d86;
      }
    </style>
  </defs>
  <g>
    <line class="cls-2" x1="22.47" y1="2.5" x2="22.47" y2="19.47"/>
    <line class="cls-2" x1="54.42" y1="2.5" x2="54.42" y2="19.47"/>
    <rect class="cls-2" x="2.5" y="11.48" width="71.9" height="64.91" rx="12.98" ry="12.98"/>
    <line class="cls-2" x1="2.5" y1="29.46" x2="74.39" y2="29.46"/>
    <g>
      <line class="cls-1" x1="38.44" y1="45.43" x2="38.44" y2="38.44"/>
      <line class="cls-1" x1="48.03" y1="48.93" x2="52.52" y2="43.54"/>
      <line class="cls-1" x1="28.86" y1="48.93" x2="24.36" y2="43.54"/>
      <line class="cls-1" x1="53.22" y1="57.82" x2="60.11" y2="56.62"/>
      <line class="cls-1" x1="23.67" y1="57.82" x2="16.78" y2="56.62"/>
    </g>
    <path class="cls-2" d="M27.46,61.41c0-6.07,4.92-10.98,10.98-10.98s10.98,4.92,10.98,10.98"/>
    <path class="cls-2" d="M8.49,68.4c19.97-9.32,39.94-9.32,59.91,0"/>
  </g>
  <path class="cls-3" d="M98.38,50.09h0c-.77-1.59-1.65-3.58-2.64-5.97-.99-2.39-2.01-5.16-3.07-8.32-1.06-3.16-2.15-6.64-3.26-10.45h0c.53-.58,1.21-1.06,2.03-1.45.82-.39,1.71-.58,2.68-.58h0c1.25,0,2.28.28,3.07.83.8.55,1.41,1.56,1.84,3h0c1.25,3.76,2.52,7.47,3.8,11.14s2.64,7.4,4.09,11.21h.29c.92-2.12,1.83-4.62,2.75-7.49.92-2.87,1.8-5.85,2.64-8.93.84-3.09,1.56-6.03,2.13-8.83h0c.58-.29,1.18-.52,1.81-.69.63-.17,1.3-.25,2.03-.25h0c1.21,0,2.25.28,3.15.83.89.55,1.34,1.48,1.34,2.79h0c0,1.16-.2,2.69-.61,4.59-.41,1.9-.98,4.01-1.7,6.33-.72,2.31-1.56,4.73-2.5,7.23-.94,2.51-1.93,4.93-2.97,7.27-1.04,2.34-2.09,4.45-3.15,6.33h0c-2.46,4.39-4.73,7.7-6.8,9.95-2.07,2.24-4.08,3.36-6,3.36h0c-1.49,0-2.71-.45-3.65-1.34-.94-.89-1.51-1.99-1.7-3.29h0c1.06-.92,2.18-2.01,3.36-3.29,1.18-1.28,2.33-2.64,3.44-4.09,1.11-1.45,2.05-2.87,2.82-4.27h0c-.82-.24-1.64-.74-2.46-1.48s-1.74-2.13-2.75-4.16ZM162.83,41.12h0c0,3.71-.72,6.93-2.17,9.66-1.45,2.72-3.48,4.82-6.11,6.29-2.63,1.47-5.73,2.21-9.3,2.21h0c-3.57,0-6.68-.74-9.33-2.21-2.65-1.47-4.71-3.56-6.18-6.26-1.47-2.7-2.21-5.93-2.21-9.69h0c0-3.71.75-6.92,2.24-9.62,1.49-2.7,3.57-4.79,6.22-6.26,2.65-1.47,5.74-2.21,9.26-2.21h0c3.52,0,6.59.74,9.22,2.21,2.63,1.47,4.68,3.57,6.15,6.29,1.47,2.72,2.21,5.92,2.21,9.58ZM145.26,30.12h0c-2.65,0-4.74.96-6.26,2.89s-2.28,4.63-2.28,8.1h0c0,3.57.75,6.31,2.24,8.21,1.49,1.9,3.59,2.86,6.29,2.86h0c2.65,0,4.73-.96,6.22-2.89,1.49-1.93,2.24-4.65,2.24-8.17h0c0-3.42-.75-6.11-2.24-8.07s-3.57-2.93-6.22-2.93ZM200.31,34.61h0v23.51c-.39.14-.95.28-1.7.4-.75.12-1.53.18-2.35.18h0c-1.69,0-2.92-.3-3.69-.9-.77-.6-1.16-1.68-1.16-3.22h0v-18.95c0-1.88-.57-3.27-1.7-4.16-1.13-.89-2.57-1.34-4.3-1.34h0c-1.25,0-2.4.18-3.44.54-1.04.36-1.92.78-2.64,1.27h0v26.19c-.39.14-.94.28-1.66.4-.72.12-1.52.18-2.39.18h0c-1.64,0-2.86-.3-3.65-.9-.8-.6-1.19-1.68-1.19-3.22h0v-23.22c0-1.16.24-2.11.72-2.86.48-.75,1.21-1.43,2.17-2.06h0c1.49-1.01,3.34-1.83,5.53-2.46s4.47-.94,6.84-.94h0c2.36,0,4.53.36,6.51,1.09h0c1.59.58,2.97,1.4,4.12,2.46h0c1.16-.82,2.48-1.57,3.98-2.24h0c2.03-.87,4.44-1.3,7.23-1.3h0c2.56,0,4.87.41,6.94,1.23s3.71,2.15,4.92,3.98c1.21,1.83,1.81,4.2,1.81,7.09h0v22.79c-.34.14-.88.28-1.63.4-.75.12-1.53.18-2.35.18h0c-1.69,0-2.93-.3-3.73-.9-.8-.6-1.19-1.68-1.19-3.22h0v-18.95c0-1.88-.53-3.27-1.59-4.16-1.06-.89-2.48-1.34-4.27-1.34h0c-1.3,0-2.58.27-3.83.8h0c-.92.43-1.76.96-2.53,1.59h0c.14.68.22,1.37.22,2.1ZM230.83,54.57v-30.24c.39-.14.95-.28,1.7-.4.75-.12,1.56-.18,2.42-.18h0c1.69,0,2.92.3,3.69.9.77.6,1.16,1.7,1.16,3.29h0v30.16c-.39.14-.94.28-1.66.4-.72.12-1.52.18-2.39.18h0c-1.64,0-2.87-.3-3.69-.9-.82-.6-1.23-1.68-1.23-3.22h0ZM230.11,13.85h0c0-1.4.49-2.58,1.48-3.54s2.23-1.45,3.73-1.45h0c1.54,0,2.79.48,3.73,1.45s1.41,2.15,1.41,3.54h0c0,1.35-.47,2.52-1.41,3.51-.94.99-2.18,1.48-3.73,1.48h0c-1.49,0-2.74-.49-3.73-1.48-.99-.99-1.48-2.16-1.48-3.51Z"/>
</svg>