<svg xmlns="http://www.w3.org/2000/svg" viewBox="11.50 6.00 337.49 108.00" width="337" height="108">
  <g fill="none" stroke="#7a4d86" stroke-width="5" stroke-linecap="round" stroke-linejoin="round">
    <line x1="44" y1="24" x2="44" y2="41"></line><line x1="76" y1="24" x2="76" y2="41"></line>
    <rect x="24" y="33" width="72" height="65" rx="13"></rect><line x1="24" y1="51" x2="96" y2="51"></line>
    <g stroke-width="4.60"><line x1="60" y1="67" x2="60" y2="60"></line><line x1="69.6" y1="70.5" x2="74.1" y2="65.1"></line><line x1="50.4" y1="70.5" x2="45.9" y2="65.1"></line><line x1="74.8" y1="79.4" x2="81.7" y2="78.2"></line><line x1="45.2" y1="79.4" x2="38.3" y2="78.2"></line></g>
    <path d="M49 83 A11 11 0 0 1 71 83"></path><path d="M30 90 Q60 76 90 90"></path>
  </g><g transform="translate(126.00 84.85) scale(1.0080)"><path d="M14.90-11.30L14.90-11.30Q13.30-14.60 11.25-19.55Q9.20-24.50 7-31.05Q4.80-37.60 2.50-45.50L2.50-45.50Q3.60-46.70 5.30-47.50Q7-48.30 9-48.30L9-48.30Q11.60-48.30 13.25-47.15Q14.90-46 15.80-43L15.80-43Q18.40-35.20 21.05-27.60Q23.70-20 26.70-12.10L26.70-12.10L27.10-12.10Q29-16.50 30.90-22.45Q32.80-28.40 34.55-34.80Q36.30-41.20 37.50-47L37.50-47Q38.70-47.60 40-47.95Q41.30-48.30 42.80-48.30L42.80-48.30Q45.30-48.30 47.15-47.15Q49-46 49-43.30L49-43.30Q49-40.90 48.15-36.95Q47.30-33 45.80-28.20Q44.30-23.40 42.35-18.20Q40.40-13 38.25-8.15Q36.10-3.30 33.90 0.60L33.90 0.60Q28.80 9.70 24.50 14.35Q20.20 19 16.20 19L16.20 19Q13.10 19 11.15 17.15Q9.20 15.30 8.80 12.60L8.80 12.60Q11 10.70 13.45 8.05Q15.90 5.40 18.20 2.40Q20.50-0.60 22.10-3.50L22.10-3.50Q20.40-4 18.70-5.55Q17-7.10 14.90-11.30ZM104-23.70L104-23.70Q104-16 101-10.35Q98-4.70 92.55-1.65Q87.10 1.40 79.70 1.40L79.70 1.40Q72.30 1.40 66.80-1.65Q61.30-4.70 58.25-10.30Q55.20-15.90 55.20-23.70L55.20-23.70Q55.20-31.40 58.30-37Q61.40-42.60 66.90-45.65Q72.40-48.70 79.70-48.70L79.70-48.70Q87-48.70 92.45-45.65Q97.90-42.60 100.95-36.95Q104-31.30 104-23.70ZM79.70-38.90L79.70-38.90Q74.20-38.90 71.05-34.90Q67.90-30.90 67.90-23.70L67.90-23.70Q67.90-16.30 71-12.35Q74.10-8.40 79.70-8.40L79.70-8.40Q85.20-8.40 88.30-12.40Q91.40-16.40 91.40-23.70L91.40-23.70Q91.40-30.80 88.30-34.85Q85.20-38.90 79.70-38.90ZM155.80-32.70L155.80-32.70L155.80-0.20Q155 0.10 153.45 0.35Q151.90 0.60 150.20 0.60L150.20 0.60Q146.70 0.60 145.10-0.65Q143.50-1.90 143.50-5.10L143.50-5.10L143.50-31.30Q143.50-35.20 141.15-37.05Q138.80-38.90 135.20-38.90L135.20-38.90Q132.60-38.90 130.45-38.15Q128.30-37.40 126.80-36.40L126.80-36.40L126.80-0.20Q126.00 0.10 124.50 0.35Q123.00 0.60 121.20 0.60L121.20 0.60Q117.80 0.60 116.15-0.65Q114.50-1.90 114.50-5.10L114.50-5.10L114.50-26.10L114.50-37.20Q114.50-39.60 115.50-41.15Q116.50-42.70 118.50-44L118.50-44Q121.60-46.10 126.15-47.40Q130.70-48.70 135.60-48.70L135.60-48.70Q140.50-48.70 144.60-47.20L144.60-47.20Q147.90-46 150.30-43.80L150.30-43.80Q152.70-45.50 155.80-46.90L155.80-46.90Q160-48.70 165.80-48.70L165.80-48.70Q171.10-48.70 175.40-47Q179.70-45.30 182.20-41.50Q184.70-37.70 184.70-31.70L184.70-31.70L184.70-0.20Q184 0.10 182.45 0.35Q180.90 0.60 179.20 0.60L179.20 0.60Q175.70 0.60 174.05-0.65Q172.40-1.90 172.40-5.10L172.40-5.10L172.40-31.30Q172.40-35.20 170.20-37.05Q168-38.90 164.30-38.90L164.30-38.90Q161.60-38.90 159-37.80L159-37.80Q157.10-36.90 155.50-35.60L155.50-35.60Q155.80-34.20 155.80-32.70ZM198.00-5.10L198.00-26.40L198.00-46.90Q198.80-47.20 200.35-47.45Q201.90-47.70 203.70-47.70L203.70-47.70Q207.20-47.70 208.80-46.45Q210.40-45.20 210.40-41.90L210.40-41.90L210.40-0.20Q209.60 0.10 208.10 0.35Q206.60 0.60 204.80 0.60L204.80 0.60Q201.40 0.60 199.70-0.65Q198.00-1.90 198.00-5.10L198.00-5.10ZM197.00-61.40L197.00-61.40Q197.00-64.30 199.05-66.30Q201.10-68.30 204.20-68.30L204.20-68.30Q207.40-68.30 209.35-66.30Q211.30-64.30 211.30-61.40L211.30-61.40Q211.30-58.60 209.35-56.55Q207.40-54.50 204.20-54.50L204.20-54.50Q201.10-54.50 199.05-56.55Q197.00-58.60 197.00-61.40Z" fill="#7a4d86"></path></g></svg>